<?xml version="1.0" standalone="no"?>
<!DOCTYPE svg PUBLIC "-//W3C//DTD SVG 20010904//EN"
 "http://www.w3.org/TR/2001/REC-SVG-20010904/DTD/svg10.dtd">
<svg version="1.0" xmlns="http://www.w3.org/2000/svg"
 width="327.000000pt" height="327.000000pt" viewBox="0 0 327.000000 327.000000"
 preserveAspectRatio="xMidYMid meet">
<metadata>
Created by potrace 1.11, written by Peter Selinger 2001-2013
</metadata>
<g transform="translate(0.000000,327.000000) scale(0.100000,-0.100000)"
fill="#000000" stroke="none">
<path d="M1609 3260 c-9 -5 -19 -20 -23 -33 -4 -19 -16 -25 -68 -36 -35 -7
-161 -35 -281 -62 -201 -47 -220 -49 -236 -35 -40 36 -112 -1 -97 -51 4 -14
-47 -59 -223 -199 -187 -148 -232 -180 -246 -172 -21 13 -60 -3 -74 -30 -7
-13 -6 -26 4 -45 13 -26 10 -37 -72 -205 -47 -97 -102 -213 -123 -257 -33 -70
-43 -82 -74 -93 -20 -7 -36 -17 -36 -22 0 -5 -3 -15 -6 -24 -3 -9 5 -26 20
-41 l26 -26 2 -289 c3 -269 2 -291 -15 -296 -51 -16 -37 -104 18 -104 16 0 28
-10 40 -38 25 -52 181 -376 210 -436 19 -40 22 -54 12 -70 -26 -48 1 -90 54
-83 35 5 46 -3 260 -174 202 -162 223 -181 225 -211 4 -54 55 -76 88 -39 16
18 21 18 79 4 34 -8 73 -17 87 -19 14 -3 84 -19 155 -35 72 -17 139 -33 150
-35 89 -17 111 -26 127 -54 24 -42 72 -42 96 0 17 29 41 38 217 75 33 6 235
52 301 68 58 14 63 14 78 -4 32 -38 87 -14 90 40 1 18 9 38 18 45 8 6 33 26
54 43 333 270 376 301 410 296 20 -3 40 0 49 7 17 14 20 53 5 79 -7 14 9 55
68 177 43 87 98 203 122 257 39 83 49 98 73 104 39 8 60 43 48 75 -5 14 -17
28 -25 31 -14 6 -16 42 -16 298 l0 291 24 19 c40 32 16 99 -36 99 -13 0 -30
26 -62 93 -24 50 -80 167 -124 259 -77 159 -80 169 -67 195 10 19 11 32 4 45
-15 27 -53 43 -75 30 -14 -8 -57 22 -244 172 -197 157 -227 184 -225 206 5 51
-57 80 -96 44 -16 -15 -35 -12 -236 34 -120 28 -246 56 -281 63 -52 11 -64 17
-69 37 -3 13 -17 28 -30 33 -30 11 -34 11 -54 -1z m-19 -76 c0 -4 -30 -34 -67
-68 -37 -33 -99 -91 -138 -128 -66 -64 -98 -79 -120 -60 -6 5 -35 19 -65 31
-108 44 -190 84 -190 92 0 5 17 13 38 18 50 13 171 41 202 47 14 3 52 12 85
20 33 8 74 17 90 20 17 2 53 11 80 18 56 16 85 19 85 10z m271 -29 c413 -95
413 -95 402 -106 -7 -7 -92 -38 -302 -110 -30 -11 -59 -19 -65 -19 -7 0 -30
23 -51 52 -22 28 -44 56 -50 62 -39 40 -113 141 -109 148 7 11 3 12 175 -27z
m-89 -118 c53 -66 95 -124 92 -128 -2 -4 -47 -22 -99 -39 -69 -23 -111 -31
-157 -30 -35 0 -76 -2 -93 -5 -22 -5 -46 1 -90 22 -33 16 -71 34 -84 39 -25
10 -34 1 221 234 33 30 45 35 76 32 34 -4 45 -14 134 -125z m-632 -70 c41 -18
90 -39 108 -46 17 -8 32 -17 32 -21 0 -25 -304 -279 -318 -265 -4 3 -4 46 1
280 1 74 4 81 27 96 21 13 29 13 50 2 14 -7 59 -28 100 -46z m1147 48 c14 -10
20 -23 18 -38 -4 -27 -13 -120 -21 -202 -2 -33 -6 -69 -9 -80 -2 -11 -4 -23
-4 -27 -1 -4 -34 10 -73 31 -40 21 -102 49 -137 62 -50 19 -73 35 -107 75 -24
28 -44 55 -44 60 0 5 46 25 103 44 56 18 107 36 112 39 9 5 123 47 135 50 3 0
15 -6 27 -14z m-1357 -16 c0 -5 -23 -88 -51 -182 -28 -95 -62 -212 -76 -260
-32 -106 -57 -132 -101 -104 -15 10 -73 45 -129 79 -154 94 -160 80 115 299
123 98 228 179 233 179 5 0 9 -5 9 -11z m1667 -172 c255 -203 255 -203 140
-235 -82 -23 -247 -71 -263 -76 -6 -2 -26 9 -45 25 -19 16 -58 46 -87 67 l-52
37 5 77 c4 43 8 87 10 98 2 11 7 55 10 97 6 77 16 97 46 90 8 -3 115 -83 236
-180z m-1651 -9 c-3 -90 -5 -169 -5 -175 -1 -7 -7 -13 -15 -13 -7 0 -19 -13
-26 -30 -7 -16 -31 -45 -55 -64 l-42 -35 18 64 c21 78 66 226 84 280 7 22 18
61 25 88 7 26 14 47 16 47 2 0 2 -73 0 -162z m982 26 l42 -51 -58 13 c-53 13
-140 27 -169 27 -7 0 -11 3 -7 6 5 5 148 60 149 57 1 -1 20 -24 43 -52z m-541
15 l68 -31 -90 -22 c-49 -13 -126 -37 -170 -54 l-80 -32 90 85 c50 46 95 84
102 85 6 0 42 -14 80 -31z m1441 -277 c2 -7 -22 -60 -54 -119 -65 -124 -105
-197 -108 -200 -2 -2 -17 18 -34 45 -17 26 -58 80 -92 120 -40 47 -57 74 -48
77 7 2 75 22 151 44 77 22 141 42 144 44 8 9 37 1 41 -11z m-2246 -73 c65 -39
120 -75 123 -79 5 -8 -108 -94 -137 -105 -10 -4 -26 21 -52 77 -63 137 -77
178 -63 178 6 0 65 -32 129 -71z m-103 -59 c27 -64 53 -123 56 -132 5 -12 -43
-50 -189 -152 -108 -75 -198 -136 -201 -136 -9 0 -4 10 208 452 29 60 47 86
59 85 11 -1 33 -38 67 -117z m2488 -53 c43 -89 99 -204 124 -257 44 -89 46
-97 33 -122 -10 -20 -23 -28 -42 -29 -15 0 -34 -2 -42 -3 -8 -2 -42 -6 -75
-10 -33 -3 -85 -9 -116 -12 l-56 -6 -12 45 c-12 42 -8 99 14 197 3 14 14 72
25 130 46 250 45 245 60 235 5 -3 44 -79 87 -168z m-136 73 c-11 -47 -21 -101
-24 -120 -3 -19 -16 -88 -28 -153 l-23 -118 -39 83 -40 83 36 70 c71 136 130
245 133 242 2 -1 -5 -41 -15 -87z m-2149 -112 c-21 -29 -49 -70 -62 -92 l-23
-39 -18 34 c-10 19 -14 37 -11 41 8 8 145 106 150 107 1 1 -15 -23 -36 -51z
m1036 33 c9 -6 67 -129 115 -246 l26 -60 -30 -31 -30 -31 -217 144 c-140 93
-217 150 -217 161 0 19 81 50 155 59 25 3 46 7 48 8 6 5 141 2 150 -4z m142
-27 c53 -16 162 -66 187 -86 8 -7 -5 -25 -49 -66 -104 -98 -122 -112 -129
-105 -4 5 -28 57 -53 116 -26 60 -53 122 -62 138 l-15 30 33 -5 c18 -3 58 -13
88 -22z m-530 -54 c0 -16 -62 -151 -67 -146 -3 2 -17 0 -32 -5 -23 -8 -36 -6
-65 12 l-38 22 29 28 c32 32 140 99 160 99 7 0 13 -4 13 -10z m243 -155 c114
-76 207 -141 207 -145 0 -4 -23 -27 -51 -51 -41 -35 -58 -43 -84 -40 -18 1
-36 -2 -39 -8 -4 -6 -31 5 -69 29 -65 41 -151 94 -195 121 -17 9 -29 28 -33
49 -4 19 -12 36 -17 38 -5 1 4 36 22 77 17 41 36 73 42 71 6 -2 104 -66 217
-141z m-998 73 c4 -17 -4 -46 -25 -92 -35 -77 -76 -214 -86 -284 -8 -60 -18
-86 -51 -128 l-27 -36 -25 29 c-15 15 -55 62 -91 103 -36 41 -77 88 -92 104
-19 22 -24 35 -19 50 5 12 6 26 4 32 -3 10 122 102 352 260 28 19 31 19 42 4
6 -9 15 -28 18 -42z m1578 -31 c15 -13 27 -31 27 -39 0 -17 -56 -247 -61 -253
-2 -2 -31 -5 -64 -6 -85 -4 -105 9 -140 93 -17 40 -31 75 -33 78 -2 6 80 89
162 164 l28 26 27 -20 c14 -10 38 -30 54 -43z m-990 -42 c42 -29 47 -45 15
-46 -13 0 -44 -3 -70 -5 -55 -5 -61 5 -25 48 27 34 33 34 80 3z m1080 -60 c39
-50 104 -171 97 -178 -3 -3 -49 -7 -103 -10 l-98 -5 6 30 c4 17 8 36 9 42 11
60 41 166 47 166 5 0 24 -20 42 -45z m-1029 -22 c21 -24 25 -25 55 -15 31 11
38 8 175 -78 110 -70 142 -95 141 -110 -2 -30 4 -26 -250 -160 -55 -29 -105
-57 -111 -61 -6 -5 -24 -3 -41 6 -23 11 -33 25 -39 53 -4 20 -8 42 -9 47 -2 6
-13 57 -25 115 -12 58 -28 129 -35 157 l-12 53 31 5 c17 2 45 6 61 8 17 2 31
5 33 6 2 0 13 -11 26 -26z m-155 -40 c6 -27 22 -102 36 -168 14 -66 30 -138
35 -159 10 -44 5 -60 -14 -49 -11 7 -153 132 -192 171 -10 10 -9 22 7 69 26
75 87 183 103 183 8 0 18 -20 25 -47z m830 -19 c12 -25 21 -50 19 -54 -2 -4
-24 6 -50 23 l-47 31 21 23 c12 13 25 23 29 23 4 0 17 -21 28 -46z m-9 -64
c61 -42 74 -60 43 -61 -87 -3 -200 -11 -211 -14 -7 -3 -15 2 -19 11 -7 19 95
116 115 109 7 -3 39 -23 72 -45z m1060 -24 l-125 -43 -9 24 c-4 13 -6 26 -4
28 6 6 57 14 133 21 38 4 72 8 74 10 2 2 16 4 30 3 14 0 -30 -20 -99 -43z
m180 34 c0 -6 -57 -69 -126 -140 l-127 -129 -18 23 c-13 16 -19 44 -21 90 l-3
67 145 49 c80 26 146 49 148 49 1 1 2 -4 2 -9z m41 -29 c1 -3 2 -132 3 -285 1
-314 -2 -334 -50 -270 -16 21 -31 41 -34 44 -22 21 -193 246 -194 256 -2 18
247 270 262 266 6 -2 12 -7 13 -11z m-2865 -365 c-2 -6 -40 -60 -84 -119 -54
-73 -82 -104 -88 -96 -8 14 -13 554 -5 579 3 8 45 -68 93 -169 49 -102 87
-189 84 -195z m-86 300 c25 -29 71 -83 103 -119 63 -71 65 -80 23 -131 l-24
-29 -42 89 c-23 49 -60 124 -81 167 -21 42 -35 77 -31 76 4 0 27 -24 52 -53z
m2148 4 c10 -26 7 -30 -63 -78 -81 -56 -69 -56 -152 4 -29 22 -31 26 -21 57
10 33 12 34 66 36 31 1 58 3 59 4 1 2 24 3 52 4 46 1 51 -1 59 -27z m-246 -7
c-7 -35 -18 -37 -58 -9 l-36 24 28 4 c65 7 71 5 66 -19z m-122 -79 c56 -128
55 -133 -27 -88 -233 126 -289 162 -255 164 123 8 187 12 189 14 1 1 14 2 27
2 23 0 30 -11 66 -92z m52 61 c39 -25 56 -41 53 -53 -11 -57 -27 -102 -38
-102 -7 0 -25 33 -41 73 -16 39 -33 76 -38 82 -10 11 -11 35 0 35 4 0 33 -16
64 -35z m-438 -24 c5 -8 -4 -38 -33 -106 -5 -11 -14 -35 -21 -52 -7 -18 -15
-33 -19 -34 -3 0 -15 -2 -26 -4 -27 -6 -285 -9 -289 -4 -4 4 363 208 376 208
4 1 9 -3 12 -8z m146 -26 c34 -19 63 -35 65 -35 1 0 41 -22 89 -50 48 -27 91
-50 96 -50 6 0 10 -6 10 -12 0 -10 -41 -14 -163 -17 -89 -2 -189 -4 -222 -5
-33 0 -62 3 -63 7 -2 4 11 45 29 91 28 72 36 84 63 93 17 6 32 11 33 12 0 0
29 -15 63 -34z m-715 -89 c68 -63 78 -77 69 -92 -10 -17 -117 -58 -181 -70
-29 -5 -33 -3 -34 18 -4 58 -1 149 5 201 l7 57 27 -19 c15 -11 63 -54 107 -95z
m1345 90 c0 -13 2 -31 5 -38 4 -11 -11 -20 -55 -33 -54 -16 -63 -17 -76 -3
-13 13 -8 19 47 56 34 23 66 42 71 42 4 0 8 -11 8 -24z m-218 -32 c21 -15 38
-28 38 -30 0 -2 -19 -16 -43 -33 -59 -40 -74 -30 -57 38 6 28 15 51 18 51 3 0
23 -12 44 -26z m-1716 -73 c-2 -61 -9 -70 -31 -37 -16 24 -16 27 5 56 12 16
23 30 25 30 1 0 2 -22 1 -49z m1947 -11 c2 -23 0 -43 -3 -45 -8 -5 -83 48 -84
59 -1 8 74 36 82 30 2 -1 4 -21 5 -44z m-153 30 c16 -10 21 -7 -59 -35 -24 -8
-46 -14 -48 -12 -4 5 69 55 82 56 6 0 17 -3 25 -9z m610 -31 c0 -5 -4 -9 -8
-9 -5 0 -9 7 -9 15 0 8 4 12 9 9 4 -3 8 -9 8 -15z m-521 -26 c31 -21 59 -42
62 -46 9 -12 -8 -111 -33 -196 l-22 -74 -25 29 c-14 16 -42 49 -61 73 -19 24
-56 70 -83 101 -60 74 -56 94 29 126 32 12 63 22 68 23 5 1 35 -16 65 -36z
m794 -326 c-6 -11 -25 -6 -184 44 l-126 40 8 42 c4 23 9 75 12 114 8 127 12
125 162 -64 73 -93 131 -172 128 -176z m-2679 253 c2 -14 7 -53 11 -88 3 -35
8 -69 11 -76 6 -17 -54 -28 -64 -12 -3 6 -23 45 -43 87 l-37 76 31 47 30 47
29 -28 c16 -16 30 -40 32 -53z m1576 35 c0 -3 -77 -56 -171 -119 l-172 -113
-91 39 c-50 22 -92 41 -94 42 -1 2 9 35 24 74 l26 71 82 3 c189 7 396 9 396 3z
m-518 -71 c-14 -35 -29 -64 -33 -64 -7 0 -135 55 -229 99 l-35 16 70 5 c39 3
111 6 161 6 l91 2 -25 -64z m473 -87 c-56 -121 -58 -124 -99 -136 -36 -10 -46
-9 -84 9 -23 11 -54 25 -69 31 -18 7 -23 13 -16 20 25 25 318 214 321 207 2
-4 -22 -63 -53 -131z m249 -11 c53 -66 96 -124 96 -130 0 -6 -6 -18 -13 -26
-14 -18 -104 -70 -121 -70 -7 0 -18 28 -25 63 -7 34 -21 98 -32 142 -11 44
-22 93 -25 108 -14 82 -16 83 120 -87z m-1133 97 c-17 -21 -59 -69 -94 -107
l-64 -69 -18 65 c-9 36 -15 72 -13 78 4 13 164 67 201 69 16 1 14 -5 -12 -36z
m1014 -79 c15 -64 28 -122 29 -128 2 -6 8 -37 15 -70 7 -32 9 -62 4 -66 -4 -4
-35 -22 -68 -39 l-60 -31 -41 47 c-37 42 -41 51 -36 89 2 24 0 44 -6 48 -13 8
-10 17 57 159 28 60 57 107 64 107 10 0 23 -37 42 -116z m-798 67 c48 -21 104
-46 124 -56 l37 -18 -15 -36 c-8 -20 -22 -54 -32 -76 -10 -22 -24 -57 -32 -78
-18 -50 -46 -67 -58 -35 -12 29 -57 133 -76 173 -61 131 -71 165 -45 165 5 0
49 -17 97 -39z m-229 -145 c-29 -91 -55 -166 -58 -166 -11 0 -70 106 -70 125
0 11 30 52 66 90 35 39 74 82 87 97 12 15 23 25 25 23 2 -1 -21 -78 -50 -169z
m-723 78 c19 -42 35 -77 35 -79 0 -1 -28 -10 -62 -20 -35 -9 -82 -23 -106 -31
-54 -18 -76 -18 -69 0 11 29 151 215 159 210 4 -3 23 -39 43 -80z m870 -26
c26 -62 59 -137 73 -167 20 -46 22 -57 11 -77 -10 -20 -18 -23 -53 -19 -23 2
-79 7 -126 10 -47 4 -88 9 -92 11 -5 3 30 114 107 342 11 33 35 3 80 -100z
m373 -38 c29 -13 51 -26 50 -30 -6 -15 -249 -170 -258 -165 -5 3 11 51 34 108
23 56 45 110 49 120 7 19 0 21 125 -33z m-1112 -67 c20 -73 50 -156 69 -194 9
-16 14 -29 11 -29 -13 0 -36 13 -36 21 0 5 -25 59 -55 121 -30 61 -55 115 -55
119 0 7 18 14 42 18 4 0 15 -25 24 -56z m2487 12 c153 -45 173 -62 109 -92
-21 -9 -98 -50 -173 -90 -75 -40 -141 -73 -147 -73 -22 0 -25 79 -3 133 11 29
27 78 36 110 10 35 22 57 29 55 7 -2 73 -21 149 -43z m-2514 -95 c67 -136 69
-132 -47 -79 -34 16 -65 29 -67 29 -2 0 -33 13 -67 29 -35 15 -73 31 -85 35
-11 4 -24 13 -27 21 -4 10 17 21 82 40 48 15 98 30 112 35 14 5 28 9 33 9 4 1
34 -53 66 -119z m1306 75 c54 -25 75 -39 75 -53 0 -11 -73 -90 -180 -194
l-181 -176 -57 17 -57 17 0 85 c0 54 4 84 11 84 6 0 39 -35 73 -78 35 -43 65
-76 68 -73 3 3 -3 16 -13 29 -110 142 -105 132 -97 171 7 33 20 44 133 121 69
46 131 84 137 84 7 1 47 -15 88 -34z m-1445 -132 c69 -30 144 -62 167 -71 37
-14 45 -24 77 -92 20 -42 36 -79 36 -83 0 -5 -37 -59 -81 -121 -107 -147 -105
-147 -190 27 -34 73 -91 190 -126 261 -34 71 -60 133 -57 138 8 12 28 5 174
-59z m2816 49 c-2 -4 -25 -52 -50 -107 -125 -267 -201 -415 -212 -415 -8 0
-22 30 -33 68 -83 283 -81 276 -63 287 9 5 91 49 182 97 144 76 191 94 176 70z
m-862 -4 c-21 -36 -68 -98 -75 -98 -4 0 -9 12 -11 28 -3 23 4 31 42 54 53 32
53 32 44 16z m-402 -12 c14 -10 18 -30 19 -92 1 -43 -3 -80 -7 -81 -5 -2 -76
-39 -158 -83 -157 -84 -156 -84 -177 -37 -4 8 291 307 301 307 3 -1 13 -7 22
-14z m98 -56 l41 -49 -50 -26 c-57 -28 -53 -33 -53 50 0 93 4 94 62 25z m209
-37 c1 -13 -15 -35 -41 -58 l-43 -36 -27 33 c-15 18 -28 36 -28 40 0 4 28 23
62 42 67 38 75 36 77 -21z m-999 33 c25 -3 62 -5 83 -5 26 -1 37 -6 37 -16 0
-8 10 -21 23 -30 21 -13 23 -22 21 -82 -2 -88 -1 -83 -22 -75 -76 31 -237 155
-262 202 -9 17 -6 19 32 14 24 -2 63 -6 88 -8z m1559 -83 c1 -7 -12 -19 -29
-28 -36 -19 -36 -18 -8 41 21 42 23 44 29 22 4 -12 7 -29 8 -35z m-672 -61
c-10 -13 -139 -82 -152 -82 -3 0 -5 26 -3 57 3 57 3 57 53 85 l50 28 32 -37
c25 -29 29 -41 20 -51z m-1492 60 c16 -10 55 -81 55 -97 0 -35 -19 -19 -48 41
-30 60 -31 74 -7 56z m2215 -172 c23 -80 43 -153 45 -163 2 -9 7 -22 11 -29
24 -39 -30 21 -117 128 -96 120 -99 125 -84 146 12 19 95 70 102 64 1 -1 20
-67 43 -146z m-895 76 c3 -42 1 -48 -23 -60 -38 -20 -252 -50 -252 -36 0 4 40
28 88 53 49 26 108 58 133 71 24 14 45 23 47 22 2 -2 5 -25 7 -50z m-1096
-193 l41 -43 -20 -20 c-11 -11 -20 -24 -20 -28 0 -5 -13 -9 -28 -10 -27 -1
-32 7 -89 126 -45 96 -57 131 -50 143 9 14 20 5 67 -55 32 -39 76 -90 99 -113z
m1930 29 c76 -92 97 -124 86 -128 -9 -4 -92 13 -186 36 -162 41 -169 43 -152
60 39 38 100 107 118 133 10 15 21 26 26 25 4 -2 53 -58 108 -126z m-2056 -17
c47 -95 54 -115 39 -115 -32 -1 -177 -11 -208 -14 -21 -2 -34 2 -41 13 -8 13
5 38 65 124 42 59 79 107 82 107 3 0 31 -52 63 -115z m874 98 c2 -6 -7 -8 -23
-5 -19 3 -22 7 -12 13 15 10 30 7 35 -8z m1046 -179 c209 -52 220 -55 214 -61
-5 -5 -64 -20 -117 -29 -14 -3 -41 -9 -60 -14 -19 -5 -51 -12 -70 -15 -19 -3
-71 -14 -115 -25 -44 -10 -96 -21 -115 -24 l-36 -5 1 43 c0 41 3 45 75 104 41
33 76 61 78 61 2 1 67 -15 145 -35z m-1567 -106 c86 -54 210 -106 322 -134 52
-13 97 -26 98 -27 4 -4 -168 -77 -179 -77 -7 0 -53 36 -187 143 -8 7 -35 28
-60 47 -24 19 -51 41 -58 48 -7 6 -22 17 -33 22 -10 6 -19 20 -19 32 0 20 1
20 28 2 15 -10 54 -35 88 -56z m-244 -40 c24 -50 66 -138 94 -197 29 -58 50
-108 48 -110 -2 -3 -402 311 -456 358 -22 19 16 31 117 37 61 3 111 7 113 9 2
2 12 1 22 -2 12 -3 35 -38 62 -95z m25 85 c8 -21 51 -35 71 -24 18 10 9 17
235 -162 l138 -110 -122 -54 c-88 -40 -124 -52 -132 -44 -6 6 -21 11 -34 11
-16 0 -27 9 -37 33 -11 26 -161 337 -172 358 -2 4 8 7 22 7 14 0 28 -7 31 -15z
m2008 -32 c-6 -4 -110 -88 -232 -185 -196 -157 -224 -176 -242 -166 -12 6 -21
21 -22 33 0 12 -3 45 -6 72 -3 28 -6 72 -7 100 -1 48 -1 49 34 57 279 60 371
80 400 87 48 12 86 13 75 2z m-537 -48 l2 -38 -137 -30 c-217 -46 -232 -46
-95 4 48 17 114 47 147 65 33 19 65 34 71 35 5 0 11 -16 12 -36z m8 -79 c3
-36 15 -168 19 -194 2 -17 -3 -30 -14 -37 -13 -8 -47 6 -166 73 -94 53 -151
91 -153 101 -2 15 15 22 110 41 62 13 127 26 143 29 17 3 32 7 34 9 10 9 26
-4 27 -22z m-462 -153 c-25 -36 -71 -102 -101 -147 -80 -115 -84 -113 -167 84
-36 87 -66 161 -66 165 0 5 9 6 20 2 41 -13 313 -4 329 11 2 2 10 -8 18 -23
13 -24 11 -30 -33 -92z m-273 -90 c32 -74 56 -137 53 -140 -6 -7 -8 -6 -173
124 -77 61 -139 114 -138 118 1 5 41 25 87 46 l85 38 14 -26 c8 -14 41 -87 72
-160z m462 131 c202 -112 257 -146 254 -156 -6 -19 -559 -147 -579 -135 -9 6
5 34 52 101 123 178 144 204 164 200 10 -2 23 1 29 7 16 16 23 14 80 -17z
m-521 -213 c53 -43 94 -79 92 -82 -3 -3 -36 3 -75 13 -38 10 -72 18 -74 19
-15 2 -210 46 -300 67 -33 7 -70 15 -83 17 -12 2 -27 8 -34 15 -9 9 10 21 78
52 49 22 107 48 129 59 l40 18 65 -51 c36 -28 109 -85 162 -127z"/>
</g>
</svg>
